<?xml version="1.0" encoding="UTF-8"?>
<svg width="323px" height="76px" viewBox="0 0 323 76" version="1.1" xmlns="http://www.w3.org/2000/svg" xmlns:xlink="http://www.w3.org/1999/xlink">
    <!-- Generator: Sketch 63.1 (92452) - https://sketch.com -->
    <title>untitled (4)</title>
    <desc>Created with Sketch.</desc>
    <g id="Page-1" stroke="none" stroke-width="1" fill="none" fill-rule="evenodd">
        <g id="untitled-(4)">
            <g id="bbcZF5bk4-link" fill="#3D1A63" fill-rule="nonzero">
                <polygon id="bbcZF5bk4" points="322.83 0 322.83 75.201519 0.83 75.201519 0.83 0"></polygon>
            </g>
            <g id="Group" transform="translate(180.000000, 1.924051)" fill-rule="nonzero">
                <g id="d1ExuF8bKD-link" fill="#FFFFFF">
                    <polygon id="d1ExuF8bKD" points="140.83 71.1898734 0.93 71.1898734 11.43 0 140.83 0"></polygon>
                </g>
                <g id="d1ExuF8bKD-link" fill="#000000" fill-opacity="0" stroke="#000000" stroke-opacity="0">
                    <polygon id="d1ExuF8bKD" points="140.83 71.1898734 0.93 71.1898734 11.43 0 140.83 0"></polygon>
                </g>
            </g>
            <g id="Group" transform="translate(206.000000, 25.974684)" fill-rule="nonzero">
                <g id="e2ySbvxTgT-link" fill="#EC5428">
                    <path d="M7.7,15.1422785 C7.57,15.0268354 7.57,14.8440506 7.7,14.7286076 C7.81,14.6035443 8,14.6035443 8.11,14.7286076 C8.99,15.5944304 11.89,15.6136709 12.8,14.7286076 C12.91,14.6227848 13.11,14.6227848 13.22,14.7286076 C13.35,14.8440506 13.35,15.0268354 13.22,15.1422785 C12.08,16.2582278 8.85,16.2582278 7.7,15.1422785 Z M6.48,12.275443 C6.48,12.9392405 7.03,13.4779747 7.73,13.4779747 C8.41,13.4779747 8.96,12.9392405 8.96,12.275443 C8.96,11.5924051 8.41,11.0632911 7.73,11.0632911 C7.03,11.0632911 6.48,11.5924051 6.48,12.275443 Z M13.19,13.4779747 C13.89,13.4779747 14.44,12.9392405 14.44,12.275443 C14.44,11.5924051 13.89,11.0632911 13.19,11.0632911 C12.51,11.0632911 11.96,11.5924051 11.96,12.275443 C11.96,12.9392405 12.51,13.4779747 13.19,13.4779747 Z M18.67,20.8374684 C17.03,20.8374684 3.89,20.8374684 2.25,20.8374684 C1.01,20.8374684 0.01,19.8658228 0.01,18.6536709 C0.01,17.0567089 0.01,4.2521519 0.01,2.64556962 C0.01,1.44303797 1.01,0.461772152 2.25,0.461772152 C3.89,0.461772152 17.03,0.461772152 18.67,0.461772152 C19.91,0.461772152 20.91,1.44303797 20.91,2.64556962 C20.91,5.84911392 20.91,17.0567089 20.91,18.6536709 C20.91,19.8658228 19.91,20.8374684 18.67,20.8374684 Z M10.75,8.22531646 C10.81,7.97518987 11.1,6.6956962 11.62,4.40607595 C13.29,4.76202532 14.21,4.96405063 14.4,5.0121519 C14.4,5.66632911 14.95,6.21468354 15.63,6.21468354 C16.33,6.21468354 16.88,5.65670886 16.88,5.00253165 C16.88,4.33873418 16.33,3.78075949 15.63,3.78075949 C15.15,3.78075949 14.73,4.05974684 14.52,4.45417722 C14.22,4.38683544 11.76,3.85772152 11.46,3.79037975 C11.3,3.75189873 11.16,3.85772152 11.11,4.00202532 C11.02,4.43493671 10.25,7.80202532 10.16,8.22531646 C8.49,8.29265823 6.99,8.78329114 5.87,9.54329114 C5.57,9.23544304 5.13,9.04303797 4.66,9.04303797 C2.91,9.04303797 2.34,11.3326582 3.94,12.1118987 C3.88,12.3524051 3.85,12.6121519 3.85,12.8718987 C3.85,15.4405063 6.83,17.518481 10.47,17.518481 C14.14,17.518481 17.11,15.4405063 17.11,12.8718987 C17.11,12.6121519 17.08,12.3427848 17.01,12.0926582 C18.58,11.3134177 18,9.04303797 16.26,9.04303797 C15.79,9.04303797 15.37,9.23544304 15.06,9.53367089 C13.94,8.77367089 12.43,8.28303797 10.75,8.22531646 Z" id="e2ySbvxTgT"></path>
                </g>
                <g id="e2ySbvxTgT-link" fill="#000000" fill-opacity="0" stroke="#000000" stroke-opacity="0">
                    <path d="M7.7,15.1422785 C7.57,15.0268354 7.57,14.8440506 7.7,14.7286076 C7.81,14.6035443 8,14.6035443 8.11,14.7286076 C8.99,15.5944304 11.89,15.6136709 12.8,14.7286076 C12.91,14.6227848 13.11,14.6227848 13.22,14.7286076 C13.35,14.8440506 13.35,15.0268354 13.22,15.1422785 C12.08,16.2582278 8.85,16.2582278 7.7,15.1422785 Z M6.48,12.275443 C6.48,12.9392405 7.03,13.4779747 7.73,13.4779747 C8.41,13.4779747 8.96,12.9392405 8.96,12.275443 C8.96,11.5924051 8.41,11.0632911 7.73,11.0632911 C7.03,11.0632911 6.48,11.5924051 6.48,12.275443 Z M13.19,13.4779747 C13.89,13.4779747 14.44,12.9392405 14.44,12.275443 C14.44,11.5924051 13.89,11.0632911 13.19,11.0632911 C12.51,11.0632911 11.96,11.5924051 11.96,12.275443 C11.96,12.9392405 12.51,13.4779747 13.19,13.4779747 Z M18.67,20.8374684 C17.03,20.8374684 3.89,20.8374684 2.25,20.8374684 C1.01,20.8374684 0.01,19.8658228 0.01,18.6536709 C0.01,17.0567089 0.01,4.2521519 0.01,2.64556962 C0.01,1.44303797 1.01,0.461772152 2.25,0.461772152 C3.89,0.461772152 17.03,0.461772152 18.67,0.461772152 C19.91,0.461772152 20.91,1.44303797 20.91,2.64556962 C20.91,5.84911392 20.91,17.0567089 20.91,18.6536709 C20.91,19.8658228 19.91,20.8374684 18.67,20.8374684 Z M10.75,8.22531646 C10.81,7.97518987 11.1,6.6956962 11.62,4.40607595 C13.29,4.76202532 14.21,4.96405063 14.4,5.0121519 C14.4,5.66632911 14.95,6.21468354 15.63,6.21468354 C16.33,6.21468354 16.88,5.65670886 16.88,5.00253165 C16.88,4.33873418 16.33,3.78075949 15.63,3.78075949 C15.15,3.78075949 14.73,4.05974684 14.52,4.45417722 C14.22,4.38683544 11.76,3.85772152 11.46,3.79037975 C11.3,3.75189873 11.16,3.85772152 11.11,4.00202532 C11.02,4.43493671 10.25,7.80202532 10.16,8.22531646 C8.49,8.29265823 6.99,8.78329114 5.87,9.54329114 C5.57,9.23544304 5.13,9.04303797 4.66,9.04303797 C2.91,9.04303797 2.34,11.3326582 3.94,12.1118987 C3.88,12.3524051 3.85,12.6121519 3.85,12.8718987 C3.85,15.4405063 6.83,17.518481 10.47,17.518481 C14.14,17.518481 17.11,15.4405063 17.11,12.8718987 C17.11,12.6121519 17.08,12.3427848 17.01,12.0926582 C18.58,11.3134177 18,9.04303797 16.26,9.04303797 C15.79,9.04303797 15.37,9.23544304 15.06,9.53367089 C13.94,8.77367089 12.43,8.28303797 10.75,8.22531646 Z" id="e2ySbvxTgT"></path>
                </g>
            </g>
            <g id="Group" transform="translate(206.000000, 25.974684)" fill="#000000" fill-opacity="0" fill-rule="nonzero">
                <g id="a4SmXncJ7p-link">
                    <path d="M7.7,15.1422785 C7.57,15.0268354 7.57,14.8440506 7.7,14.7286076 C7.81,14.6035443 8,14.6035443 8.11,14.7286076 C8.99,15.5944304 11.89,15.6136709 12.8,14.7286076 C12.91,14.6227848 13.11,14.6227848 13.22,14.7286076 C13.35,14.8440506 13.35,15.0268354 13.22,15.1422785 C12.08,16.2582278 8.85,16.2582278 7.7,15.1422785 Z M6.48,12.275443 C6.48,12.9392405 7.03,13.4779747 7.73,13.4779747 C8.41,13.4779747 8.96,12.9392405 8.96,12.275443 C8.96,11.5924051 8.41,11.0632911 7.73,11.0632911 C7.03,11.0632911 6.48,11.5924051 6.48,12.275443 Z M13.19,13.4779747 C13.89,13.4779747 14.44,12.9392405 14.44,12.275443 C14.44,11.5924051 13.89,11.0632911 13.19,11.0632911 C12.51,11.0632911 11.96,11.5924051 11.96,12.275443 C11.96,12.9392405 12.51,13.4779747 13.19,13.4779747 Z M18.67,20.8374684 C17.03,20.8374684 3.89,20.8374684 2.25,20.8374684 C1.01,20.8374684 0.01,19.8658228 0.01,18.6536709 C0.01,17.0567089 0.01,4.2521519 0.01,2.64556962 C0.01,1.44303797 1.01,0.461772152 2.25,0.461772152 C3.89,0.461772152 17.03,0.461772152 18.67,0.461772152 C19.91,0.461772152 20.91,1.44303797 20.91,2.64556962 C20.91,5.84911392 20.91,17.0567089 20.91,18.6536709 C20.91,19.8658228 19.91,20.8374684 18.67,20.8374684 Z M10.75,8.22531646 C10.81,7.97518987 11.1,6.6956962 11.62,4.40607595 C13.29,4.76202532 14.21,4.96405063 14.4,5.0121519 C14.4,5.66632911 14.95,6.21468354 15.63,6.21468354 C16.33,6.21468354 16.88,5.65670886 16.88,5.00253165 C16.88,4.33873418 16.33,3.78075949 15.63,3.78075949 C15.15,3.78075949 14.73,4.05974684 14.52,4.45417722 C14.22,4.38683544 11.76,3.85772152 11.46,3.79037975 C11.3,3.75189873 11.16,3.85772152 11.11,4.00202532 C11.02,4.43493671 10.25,7.80202532 10.16,8.22531646 C8.49,8.29265823 6.99,8.78329114 5.87,9.54329114 C5.57,9.23544304 5.13,9.04303797 4.66,9.04303797 C2.91,9.04303797 2.34,11.3326582 3.94,12.1118987 C3.88,12.3524051 3.85,12.6121519 3.85,12.8718987 C3.85,15.4405063 6.83,17.518481 10.47,17.518481 C14.14,17.518481 17.11,15.4405063 17.11,12.8718987 C17.11,12.6121519 17.08,12.3427848 17.01,12.0926582 C18.58,11.3134177 18,9.04303797 16.26,9.04303797 C15.79,9.04303797 15.37,9.23544304 15.06,9.53367089 C13.94,8.77367089 12.43,8.28303797 10.75,8.22531646 Z" id="a4SmXncJ7p"></path>
                </g>
                <g id="a4SmXncJ7p-link" stroke="#000000" stroke-opacity="0">
                    <path d="M7.7,15.1422785 C7.57,15.0268354 7.57,14.8440506 7.7,14.7286076 C7.81,14.6035443 8,14.6035443 8.11,14.7286076 C8.99,15.5944304 11.89,15.6136709 12.8,14.7286076 C12.91,14.6227848 13.11,14.6227848 13.22,14.7286076 C13.35,14.8440506 13.35,15.0268354 13.22,15.1422785 C12.08,16.2582278 8.85,16.2582278 7.7,15.1422785 Z M6.48,12.275443 C6.48,12.9392405 7.03,13.4779747 7.73,13.4779747 C8.41,13.4779747 8.96,12.9392405 8.96,12.275443 C8.96,11.5924051 8.41,11.0632911 7.73,11.0632911 C7.03,11.0632911 6.48,11.5924051 6.48,12.275443 Z M13.19,13.4779747 C13.89,13.4779747 14.44,12.9392405 14.44,12.275443 C14.44,11.5924051 13.89,11.0632911 13.19,11.0632911 C12.51,11.0632911 11.96,11.5924051 11.96,12.275443 C11.96,12.9392405 12.51,13.4779747 13.19,13.4779747 Z M18.67,20.8374684 C17.03,20.8374684 3.89,20.8374684 2.25,20.8374684 C1.01,20.8374684 0.01,19.8658228 0.01,18.6536709 C0.01,17.0567089 0.01,4.2521519 0.01,2.64556962 C0.01,1.44303797 1.01,0.461772152 2.25,0.461772152 C3.89,0.461772152 17.03,0.461772152 18.67,0.461772152 C19.91,0.461772152 20.91,1.44303797 20.91,2.64556962 C20.91,5.84911392 20.91,17.0567089 20.91,18.6536709 C20.91,19.8658228 19.91,20.8374684 18.67,20.8374684 Z M10.75,8.22531646 C10.81,7.97518987 11.1,6.6956962 11.62,4.40607595 C13.29,4.76202532 14.21,4.96405063 14.4,5.0121519 C14.4,5.66632911 14.95,6.21468354 15.63,6.21468354 C16.33,6.21468354 16.88,5.65670886 16.88,5.00253165 C16.88,4.33873418 16.33,3.78075949 15.63,3.78075949 C15.15,3.78075949 14.73,4.05974684 14.52,4.45417722 C14.22,4.38683544 11.76,3.85772152 11.46,3.79037975 C11.3,3.75189873 11.16,3.85772152 11.11,4.00202532 C11.02,4.43493671 10.25,7.80202532 10.16,8.22531646 C8.49,8.29265823 6.99,8.78329114 5.87,9.54329114 C5.57,9.23544304 5.13,9.04303797 4.66,9.04303797 C2.91,9.04303797 2.34,11.3326582 3.94,12.1118987 C3.88,12.3524051 3.85,12.6121519 3.85,12.8718987 C3.85,15.4405063 6.83,17.518481 10.47,17.518481 C14.14,17.518481 17.11,15.4405063 17.11,12.8718987 C17.11,12.6121519 17.08,12.3427848 17.01,12.0926582 C18.58,11.3134177 18,9.04303797 16.26,9.04303797 C15.79,9.04303797 15.37,9.23544304 15.06,9.53367089 C13.94,8.77367089 12.43,8.28303797 10.75,8.22531646 Z" id="a4SmXncJ7p"></path>
                </g>
            </g>
            <g id="Group" transform="translate(274.000000, 28.860759)" fill="#000000" fill-rule="nonzero">
                <g id="g1Gt3mpGF3-link">
                    <path d="M5.71,4.61772152 C6.19,4.66582278 6.62,4.30987342 6.66,3.84810127 C6.66,3.81924051 6.66,3.8 6.66,3.77113924 C6.66,3.77113924 6.66,3.74227848 6.66,3.74227848 C6.72,3.27088608 6.38,2.85721519 5.9,2.78987342 C5.89,2.78987342 5.87,2.78025316 5.85,2.78025316 C5.78,2.78025316 5.45,2.78025316 4.84,2.78025316 C4.84,1.94329114 4.84,1.48151899 4.84,1.38531646 C4.84,0.836962025 4.41,0.384810127 3.86,0.336708861 C3.29,0.298227848 2.79,0.721518987 2.75,1.27949367 C2.75,1.38531646 2.75,1.88556962 2.75,2.79949367 C2.22,2.79949367 1.93,2.79949367 1.87,2.79949367 C1.39,2.76101266 0.97,3.10734177 0.93,3.56911392 C0.92,3.60759494 0.92,3.6364557 0.92,3.6556962 C0.92,3.66531646 0.92,3.71341772 0.92,3.72303797 C0.86,4.17518987 1.2,4.60810127 1.68,4.66582278 C1.7,4.66582278 1.72,4.66582278 1.73,4.66582278 C1.8,4.66582278 2.13,4.66582278 2.72,4.66582278 C2.72,9.16810127 2.72,11.6693671 2.72,12.1696203 C2.72,12.7372152 3.19,13.1797468 3.76,13.1797468 C3.76,13.1797468 3.76,13.1797468 3.76,13.1797468 C4.33,13.2182278 4.82,12.7949367 4.85,12.236962 C4.86,12.2081013 4.85,12.1696203 4.84,12.1503797 C4.84,11.1498734 4.84,8.62936709 4.84,4.61772152 C5.36,4.61772152 5.65,4.61772152 5.71,4.61772152 Z" id="g1Gt3mpGF3"></path>
                </g>
                <g id="g1Gt3mpGF3-link" fill-opacity="0" stroke="#000000" stroke-opacity="0">
                    <path d="M5.71,4.61772152 C6.19,4.66582278 6.62,4.30987342 6.66,3.84810127 C6.66,3.81924051 6.66,3.8 6.66,3.77113924 C6.66,3.77113924 6.66,3.74227848 6.66,3.74227848 C6.72,3.27088608 6.38,2.85721519 5.9,2.78987342 C5.89,2.78987342 5.87,2.78025316 5.85,2.78025316 C5.78,2.78025316 5.45,2.78025316 4.84,2.78025316 C4.84,1.94329114 4.84,1.48151899 4.84,1.38531646 C4.84,0.836962025 4.41,0.384810127 3.86,0.336708861 C3.29,0.298227848 2.79,0.721518987 2.75,1.27949367 C2.75,1.38531646 2.75,1.88556962 2.75,2.79949367 C2.22,2.79949367 1.93,2.79949367 1.87,2.79949367 C1.39,2.76101266 0.97,3.10734177 0.93,3.56911392 C0.92,3.60759494 0.92,3.6364557 0.92,3.6556962 C0.92,3.66531646 0.92,3.71341772 0.92,3.72303797 C0.86,4.17518987 1.2,4.60810127 1.68,4.66582278 C1.7,4.66582278 1.72,4.66582278 1.73,4.66582278 C1.8,4.66582278 2.13,4.66582278 2.72,4.66582278 C2.72,9.16810127 2.72,11.6693671 2.72,12.1696203 C2.72,12.7372152 3.19,13.1797468 3.76,13.1797468 C3.76,13.1797468 3.76,13.1797468 3.76,13.1797468 C4.33,13.2182278 4.82,12.7949367 4.85,12.236962 C4.86,12.2081013 4.85,12.1696203 4.84,12.1503797 C4.84,11.1498734 4.84,8.62936709 4.84,4.61772152 C5.36,4.61772152 5.65,4.61772152 5.71,4.61772152 Z" id="g1Gt3mpGF3"></path>
                </g>
            </g>
            <g id="Group" transform="translate(274.000000, 28.860759)" fill="#000000" fill-opacity="0" fill-rule="nonzero">
                <g id="b1q4PTGVW4-link">
                    <path d="M5.71,4.61772152 C6.19,4.66582278 6.62,4.30987342 6.66,3.84810127 C6.66,3.81924051 6.66,3.8 6.66,3.77113924 C6.66,3.77113924 6.66,3.74227848 6.66,3.74227848 C6.72,3.27088608 6.38,2.85721519 5.9,2.78987342 C5.89,2.78987342 5.87,2.78025316 5.85,2.78025316 C5.78,2.78025316 5.45,2.78025316 4.84,2.78025316 C4.84,1.94329114 4.84,1.48151899 4.84,1.38531646 C4.84,0.836962025 4.41,0.384810127 3.86,0.336708861 C3.29,0.298227848 2.79,0.721518987 2.75,1.27949367 C2.75,1.38531646 2.75,1.88556962 2.75,2.79949367 C2.22,2.79949367 1.93,2.79949367 1.87,2.79949367 C1.39,2.76101266 0.97,3.10734177 0.93,3.56911392 C0.92,3.60759494 0.92,3.6364557 0.92,3.6556962 C0.92,3.66531646 0.92,3.71341772 0.92,3.72303797 C0.86,4.17518987 1.2,4.60810127 1.68,4.66582278 C1.7,4.66582278 1.72,4.66582278 1.73,4.66582278 C1.8,4.66582278 2.13,4.66582278 2.72,4.66582278 C2.72,9.16810127 2.72,11.6693671 2.72,12.1696203 C2.72,12.7372152 3.19,13.1797468 3.76,13.1797468 C3.76,13.1797468 3.76,13.1797468 3.76,13.1797468 C4.33,13.2182278 4.82,12.7949367 4.85,12.236962 C4.86,12.2081013 4.85,12.1696203 4.84,12.1503797 C4.84,11.1498734 4.84,8.62936709 4.84,4.61772152 C5.36,4.61772152 5.65,4.61772152 5.71,4.61772152 Z" id="b1q4PTGVW4"></path>
                </g>
                <g id="b1q4PTGVW4-link" stroke="#000000" stroke-opacity="0">
                    <path d="M5.71,4.61772152 C6.19,4.66582278 6.62,4.30987342 6.66,3.84810127 C6.66,3.81924051 6.66,3.8 6.66,3.77113924 C6.66,3.77113924 6.66,3.74227848 6.66,3.74227848 C6.72,3.27088608 6.38,2.85721519 5.9,2.78987342 C5.89,2.78987342 5.87,2.78025316 5.85,2.78025316 C5.78,2.78025316 5.45,2.78025316 4.84,2.78025316 C4.84,1.94329114 4.84,1.48151899 4.84,1.38531646 C4.84,0.836962025 4.41,0.384810127 3.86,0.336708861 C3.29,0.298227848 2.79,0.721518987 2.75,1.27949367 C2.75,1.38531646 2.75,1.88556962 2.75,2.79949367 C2.22,2.79949367 1.93,2.79949367 1.87,2.79949367 C1.39,2.76101266 0.97,3.10734177 0.93,3.56911392 C0.92,3.60759494 0.92,3.6364557 0.92,3.6556962 C0.92,3.66531646 0.92,3.71341772 0.92,3.72303797 C0.86,4.17518987 1.2,4.60810127 1.68,4.66582278 C1.7,4.66582278 1.72,4.66582278 1.73,4.66582278 C1.8,4.66582278 2.13,4.66582278 2.72,4.66582278 C2.72,9.16810127 2.72,11.6693671 2.72,12.1696203 C2.72,12.7372152 3.19,13.1797468 3.76,13.1797468 C3.76,13.1797468 3.76,13.1797468 3.76,13.1797468 C4.33,13.2182278 4.82,12.7949367 4.85,12.236962 C4.86,12.2081013 4.85,12.1696203 4.84,12.1503797 C4.84,11.1498734 4.84,8.62936709 4.84,4.61772152 C5.36,4.61772152 5.65,4.61772152 5.71,4.61772152 Z" id="b1q4PTGVW4"></path>
                </g>
            </g>
            <g id="Group" transform="translate(270.000000, 27.898734)" fill-rule="nonzero">
                <g id="aBz2o2qyD-link" fill="#EC5428">
                    <path d="M0.54,1.9721519 C0.54,2.96303797 1.37,3.77113924 2.4,3.77113924 C3.42,3.77113924 4.25,2.96303797 4.25,1.9721519 C4.25,0.97164557 3.42,0.163544304 2.4,0.163544304 C1.37,0.163544304 0.54,0.97164557 0.54,1.9721519 Z" id="aBz2o2qyD"></path>
                </g>
                <g id="aBz2o2qyD-link" fill="#000000" fill-opacity="0" stroke="#000000" stroke-opacity="0">
                    <path d="M0.54,1.9721519 C0.54,2.96303797 1.37,3.77113924 2.4,3.77113924 C3.42,3.77113924 4.25,2.96303797 4.25,1.9721519 C4.25,0.97164557 3.42,0.163544304 2.4,0.163544304 C1.37,0.163544304 0.54,0.97164557 0.54,1.9721519 Z" id="aBz2o2qyD"></path>
                </g>
            </g>
            <g id="Group" transform="translate(270.000000, 27.898734)" fill="#000000" fill-opacity="0" fill-rule="nonzero">
                <g id="a1a7z5aTP-link">
                    <path d="M0.54,1.9721519 C0.54,2.96303797 1.37,3.77113924 2.4,3.77113924 C3.42,3.77113924 4.25,2.96303797 4.25,1.9721519 C4.25,0.97164557 3.42,0.163544304 2.4,0.163544304 C1.37,0.163544304 0.54,0.97164557 0.54,1.9721519 Z" id="a1a7z5aTP"></path>
                </g>
                <g id="a1a7z5aTP-link" stroke="#000000" stroke-opacity="0">
                    <path d="M0.54,1.9721519 C0.54,2.96303797 1.37,3.77113924 2.4,3.77113924 C3.42,3.77113924 4.25,2.96303797 4.25,1.9721519 C4.25,0.97164557 3.42,0.163544304 2.4,0.163544304 C1.37,0.163544304 0.54,0.97164557 0.54,1.9721519 Z" id="a1a7z5aTP"></path>
                </g>
            </g>
            <g id="Group" transform="translate(271.000000, 31.746835)" fill="#000000" fill-rule="nonzero">
                <g id="c18GiRbeS-link">
                    <path d="M1.39,0.836962025 C0.81,0.836962025 0.35,1.27949367 0.35,1.84708861 C0.35,1.84708861 0.35,1.84708861 0.35,1.84708861 C0.35,6.29164557 0.35,8.76405063 0.35,9.2643038 C0.35,9.82227848 0.81,10.2744304 1.39,10.2744304 C1.96,10.2744304 2.43,9.82227848 2.43,9.2643038 C2.43,7.78278481 2.43,3.32860759 2.43,1.84708861 C2.43,1.27949367 1.96,0.836962025 1.39,0.836962025 Z" id="c18GiRbeS"></path>
                </g>
                <g id="c18GiRbeS-link" fill-opacity="0" stroke="#000000" stroke-opacity="0">
                    <path d="M1.39,0.836962025 C0.81,0.836962025 0.35,1.27949367 0.35,1.84708861 C0.35,1.84708861 0.35,1.84708861 0.35,1.84708861 C0.35,6.29164557 0.35,8.76405063 0.35,9.2643038 C0.35,9.82227848 0.81,10.2744304 1.39,10.2744304 C1.96,10.2744304 2.43,9.82227848 2.43,9.2643038 C2.43,7.78278481 2.43,3.32860759 2.43,1.84708861 C2.43,1.27949367 1.96,0.836962025 1.39,0.836962025 Z" id="c18GiRbeS"></path>
                </g>
            </g>
            <g id="Group" transform="translate(271.000000, 31.746835)" fill="#000000" fill-opacity="0" fill-rule="nonzero">
                <g id="b7TkCubPm-link">
                    <path d="M1.39,0.836962025 C0.81,0.836962025 0.35,1.27949367 0.35,1.84708861 C0.35,1.84708861 0.35,1.84708861 0.35,1.84708861 C0.35,6.29164557 0.35,8.76405063 0.35,9.2643038 C0.35,9.82227848 0.81,10.2744304 1.39,10.2744304 C1.96,10.2744304 2.43,9.82227848 2.43,9.2643038 C2.43,7.78278481 2.43,3.32860759 2.43,1.84708861 C2.43,1.27949367 1.96,0.836962025 1.39,0.836962025 Z" id="b7TkCubPm"></path>
                </g>
                <g id="b7TkCubPm-link" stroke="#000000" stroke-opacity="0">
                    <path d="M1.39,0.836962025 C0.81,0.836962025 0.35,1.27949367 0.35,1.84708861 C0.35,1.84708861 0.35,1.84708861 0.35,1.84708861 C0.35,6.29164557 0.35,8.76405063 0.35,9.2643038 C0.35,9.82227848 0.81,10.2744304 1.39,10.2744304 C1.96,10.2744304 2.43,9.82227848 2.43,9.2643038 C2.43,7.78278481 2.43,3.32860759 2.43,1.84708861 C2.43,1.27949367 1.96,0.836962025 1.39,0.836962025 Z" id="b7TkCubPm"></path>
                </g>
            </g>
            <g id="Group" transform="translate(248.000000, 26.936709)" fill="#000000" fill-rule="nonzero">
                <g id="b5yU59kDJt-link">
                    <path d="M9.01,0 C9.01,0 9.01,0 9.01,0 C9.01,0 9.01,0 9.01,0 C8.43,0 7.97,0.461772152 7.97,1.01012658 C7.97,1.01012658 7.97,1.01012658 7.97,1.01012658 C7.97,1.47189873 7.97,5.08911392 7.97,5.55088608 C7.27,4.8678481 6.33,4.49265823 5.34,4.51189873 C2.63,4.51189873 0.37,6.93620253 0.37,9.91848101 C0.37,12.9007595 2.56,15.3346835 5.31,15.3346835 C6.32,15.3635443 7.3,14.9787342 8.02,14.2860759 C8.17,14.8151899 8.74,15.123038 9.28,14.9691139 C9.29,14.9691139 9.3,14.9691139 9.3,14.9691139 C9.72,14.8440506 10.01,14.4977215 10.05,14.0744304 C10.05,11.4673418 10.05,3.62683544 10.05,1.01012658 C10.05,0.461772152 9.58,0 9.01,0 Z M2.4,9.90886076 C2.4,8.01367089 3.69,6.51291139 5.3,6.51291139 C6.91,6.51291139 8.19,8.02329114 8.19,9.90886076 C8.19,11.8040506 6.91,13.2855696 5.31,13.2855696 C5.31,13.2855696 5.3,13.3144304 5.3,13.3240506 C3.7,13.3240506 2.4,11.8136709 2.4,9.90886076 Z" id="b5yU59kDJt"></path>
                </g>
                <g id="b5yU59kDJt-link" fill-opacity="0" stroke="#000000" stroke-opacity="0">
                    <path d="M9.01,0 C9.01,0 9.01,0 9.01,0 C9.01,0 9.01,0 9.01,0 C8.43,0 7.97,0.461772152 7.97,1.01012658 C7.97,1.01012658 7.97,1.01012658 7.97,1.01012658 C7.97,1.47189873 7.97,5.08911392 7.97,5.55088608 C7.27,4.8678481 6.33,4.49265823 5.34,4.51189873 C2.63,4.51189873 0.37,6.93620253 0.37,9.91848101 C0.37,12.9007595 2.56,15.3346835 5.31,15.3346835 C6.32,15.3635443 7.3,14.9787342 8.02,14.2860759 C8.17,14.8151899 8.74,15.123038 9.28,14.9691139 C9.29,14.9691139 9.3,14.9691139 9.3,14.9691139 C9.72,14.8440506 10.01,14.4977215 10.05,14.0744304 C10.05,11.4673418 10.05,3.62683544 10.05,1.01012658 C10.05,0.461772152 9.58,0 9.01,0 Z M2.4,9.90886076 C2.4,8.01367089 3.69,6.51291139 5.3,6.51291139 C6.91,6.51291139 8.19,8.02329114 8.19,9.90886076 C8.19,11.8040506 6.91,13.2855696 5.31,13.2855696 C5.31,13.2855696 5.3,13.3144304 5.3,13.3240506 C3.7,13.3240506 2.4,11.8136709 2.4,9.90886076 Z" id="b5yU59kDJt"></path>
                </g>
            </g>
            <g id="Group" transform="translate(248.000000, 26.936709)" fill="#000000" fill-opacity="0" fill-rule="nonzero">
                <g id="a15zkWvE1T-link">
                    <path d="M9.01,0 C9.01,0 9.01,0 9.01,0 C9.01,0 9.01,0 9.01,0 C8.43,0 7.97,0.461772152 7.97,1.01012658 C7.97,1.01012658 7.97,1.01012658 7.97,1.01012658 C7.97,1.47189873 7.97,5.08911392 7.97,5.55088608 C7.27,4.8678481 6.33,4.49265823 5.34,4.51189873 C2.63,4.51189873 0.37,6.93620253 0.37,9.91848101 C0.37,12.9007595 2.56,15.3346835 5.31,15.3346835 C6.32,15.3635443 7.3,14.9787342 8.02,14.2860759 C8.17,14.8151899 8.74,15.123038 9.28,14.9691139 C9.29,14.9691139 9.3,14.9691139 9.3,14.9691139 C9.72,14.8440506 10.01,14.4977215 10.05,14.0744304 C10.05,11.4673418 10.05,3.62683544 10.05,1.01012658 C10.05,0.461772152 9.58,0 9.01,0 Z M2.4,9.90886076 C2.4,8.01367089 3.69,6.51291139 5.3,6.51291139 C6.91,6.51291139 8.19,8.02329114 8.19,9.90886076 C8.19,11.8040506 6.91,13.2855696 5.31,13.2855696 C5.31,13.2855696 5.3,13.3144304 5.3,13.3240506 C3.7,13.3240506 2.4,11.8136709 2.4,9.90886076 Z" id="a15zkWvE1T"></path>
                </g>
                <g id="a15zkWvE1T-link" stroke="#000000" stroke-opacity="0">
                    <path d="M9.01,0 C9.01,0 9.01,0 9.01,0 C9.01,0 9.01,0 9.01,0 C8.43,0 7.97,0.461772152 7.97,1.01012658 C7.97,1.01012658 7.97,1.01012658 7.97,1.01012658 C7.97,1.47189873 7.97,5.08911392 7.97,5.55088608 C7.27,4.8678481 6.33,4.49265823 5.34,4.51189873 C2.63,4.51189873 0.37,6.93620253 0.37,9.91848101 C0.37,12.9007595 2.56,15.3346835 5.31,15.3346835 C6.32,15.3635443 7.3,14.9787342 8.02,14.2860759 C8.17,14.8151899 8.74,15.123038 9.28,14.9691139 C9.29,14.9691139 9.3,14.9691139 9.3,14.9691139 C9.72,14.8440506 10.01,14.4977215 10.05,14.0744304 C10.05,11.4673418 10.05,3.62683544 10.05,1.01012658 C10.05,0.461772152 9.58,0 9.01,0 Z M2.4,9.90886076 C2.4,8.01367089 3.69,6.51291139 5.3,6.51291139 C6.91,6.51291139 8.19,8.02329114 8.19,9.90886076 C8.19,11.8040506 6.91,13.2855696 5.31,13.2855696 C5.31,13.2855696 5.3,13.3144304 5.3,13.3240506 C3.7,13.3240506 2.4,11.8136709 2.4,9.90886076 Z" id="a15zkWvE1T"></path>
                </g>
            </g>
            <g id="Group" transform="translate(259.000000, 26.936709)" fill="#000000" fill-rule="nonzero">
                <g id="c88BMncnfP-link">
                    <path d="M8.88,0 C8.88,0 8.88,0 8.88,0 C8.31,0 7.85,0.452151899 7.85,1.00050633 C7.85,1.00050633 7.85,1.01012658 7.85,1.01012658 C7.85,1.01012658 7.85,1.01012658 7.85,1.01012658 C7.85,3.73265823 7.85,5.24303797 7.85,5.55088608 C7.15,4.87746835 6.21,4.50227848 5.22,4.51189873 C2.52,4.51189873 0.25,6.93620253 0.25,9.91848101 C0.25,12.9007595 2.44,15.3346835 5.18,15.3346835 C6.2,15.3731646 7.2,14.9883544 7.93,14.2860759 C8.08,14.8151899 8.64,15.123038 9.19,14.9691139 C9.19,14.9691139 9.2,14.9691139 9.21,14.9691139 C9.62,14.8440506 9.92,14.4977215 9.95,14.0744304 C9.95,11.4673418 9.92,3.62683544 9.92,1.01012658 C9.92,0.461772152 9.45,0 8.88,0 Z M2.28,9.90886076 C2.28,8.01367089 3.56,6.51291139 5.17,6.51291139 C6.78,6.51291139 8.07,8.02329114 8.07,9.90886076 C8.07,11.8040506 6.78,13.2855696 5.18,13.2855696 C5.18,13.2855696 5.17,13.3144304 5.17,13.3240506 C3.57,13.3240506 2.28,11.8136709 2.28,9.90886076 Z" id="c88BMncnfP"></path>
                </g>
                <g id="c88BMncnfP-link" fill-opacity="0" stroke="#000000" stroke-opacity="0">
                    <path d="M8.88,0 C8.88,0 8.88,0 8.88,0 C8.31,0 7.85,0.452151899 7.85,1.00050633 C7.85,1.00050633 7.85,1.01012658 7.85,1.01012658 C7.85,1.01012658 7.85,1.01012658 7.85,1.01012658 C7.85,3.73265823 7.85,5.24303797 7.85,5.55088608 C7.15,4.87746835 6.21,4.50227848 5.22,4.51189873 C2.52,4.51189873 0.25,6.93620253 0.25,9.91848101 C0.25,12.9007595 2.44,15.3346835 5.18,15.3346835 C6.2,15.3731646 7.2,14.9883544 7.93,14.2860759 C8.08,14.8151899 8.64,15.123038 9.19,14.9691139 C9.19,14.9691139 9.2,14.9691139 9.21,14.9691139 C9.62,14.8440506 9.92,14.4977215 9.95,14.0744304 C9.95,11.4673418 9.92,3.62683544 9.92,1.01012658 C9.92,0.461772152 9.45,0 8.88,0 Z M2.28,9.90886076 C2.28,8.01367089 3.56,6.51291139 5.17,6.51291139 C6.78,6.51291139 8.07,8.02329114 8.07,9.90886076 C8.07,11.8040506 6.78,13.2855696 5.18,13.2855696 C5.18,13.2855696 5.17,13.3144304 5.17,13.3240506 C3.57,13.3240506 2.28,11.8136709 2.28,9.90886076 Z" id="c88BMncnfP"></path>
                </g>
            </g>
            <g id="Group" transform="translate(259.000000, 26.936709)" fill="#000000" fill-opacity="0" fill-rule="nonzero">
                <g id="cioaCeZ0k-link">
                    <path d="M8.88,0 C8.88,0 8.88,0 8.88,0 C8.31,0 7.85,0.452151899 7.85,1.00050633 C7.85,1.00050633 7.85,1.01012658 7.85,1.01012658 C7.85,1.01012658 7.85,1.01012658 7.85,1.01012658 C7.85,3.73265823 7.85,5.24303797 7.85,5.55088608 C7.15,4.87746835 6.21,4.50227848 5.22,4.51189873 C2.52,4.51189873 0.25,6.93620253 0.25,9.91848101 C0.25,12.9007595 2.44,15.3346835 5.18,15.3346835 C6.2,15.3731646 7.2,14.9883544 7.93,14.2860759 C8.08,14.8151899 8.64,15.123038 9.19,14.9691139 C9.19,14.9691139 9.2,14.9691139 9.21,14.9691139 C9.62,14.8440506 9.92,14.4977215 9.95,14.0744304 C9.95,11.4673418 9.92,3.62683544 9.92,1.01012658 C9.92,0.461772152 9.45,0 8.88,0 Z M2.28,9.90886076 C2.28,8.01367089 3.56,6.51291139 5.17,6.51291139 C6.78,6.51291139 8.07,8.02329114 8.07,9.90886076 C8.07,11.8040506 6.78,13.2855696 5.18,13.2855696 C5.18,13.2855696 5.17,13.3144304 5.17,13.3240506 C3.57,13.3240506 2.28,11.8136709 2.28,9.90886076 Z" id="cioaCeZ0k"></path>
                </g>
                <g id="cioaCeZ0k-link" stroke="#000000" stroke-opacity="0">
                    <path d="M8.88,0 C8.88,0 8.88,0 8.88,0 C8.31,0 7.85,0.452151899 7.85,1.00050633 C7.85,1.00050633 7.85,1.01012658 7.85,1.01012658 C7.85,1.01012658 7.85,1.01012658 7.85,1.01012658 C7.85,3.73265823 7.85,5.24303797 7.85,5.55088608 C7.15,4.87746835 6.21,4.50227848 5.22,4.51189873 C2.52,4.51189873 0.25,6.93620253 0.25,9.91848101 C0.25,12.9007595 2.44,15.3346835 5.18,15.3346835 C6.2,15.3731646 7.2,14.9883544 7.93,14.2860759 C8.08,14.8151899 8.64,15.123038 9.19,14.9691139 C9.19,14.9691139 9.2,14.9691139 9.21,14.9691139 C9.62,14.8440506 9.92,14.4977215 9.95,14.0744304 C9.95,11.4673418 9.92,3.62683544 9.92,1.01012658 C9.92,0.461772152 9.45,0 8.88,0 Z M2.28,9.90886076 C2.28,8.01367089 3.56,6.51291139 5.17,6.51291139 C6.78,6.51291139 8.07,8.02329114 8.07,9.90886076 C8.07,11.8040506 6.78,13.2855696 5.18,13.2855696 C5.18,13.2855696 5.17,13.3144304 5.17,13.3240506 C3.57,13.3240506 2.28,11.8136709 2.28,9.90886076 Z" id="cioaCeZ0k"></path>
                </g>
            </g>
            <g id="Group" transform="translate(237.000000, 30.784810)" fill="#000000" fill-rule="nonzero">
                <g id="ipKJyPHtZ-link">
                    <path d="M10.58,5.45468354 C10.57,5.20455696 10.54,4.96405063 10.49,4.7235443 C10.05,2.4435443 8.05,0.750379747 5.67,0.663797468 C2.96,0.663797468 0.7,3.08810127 0.7,6.07037975 C0.7,9.05265823 2.93,11.4865823 5.67,11.4865823 C7.13,11.5443038 8.53,10.9670886 9.51,9.91848101 C9.91,9.49518987 9.88,8.83139241 9.44,8.43696203 C9.44,8.43696203 9.44,8.43696203 9.44,8.43696203 C9.43,8.42734177 9.35,8.36962025 9.34,8.36 C8.9,8.09063291 8.33,8.14835443 7.96,8.5043038 C7.35,9.10075949 6.53,9.4278481 5.67,9.45670886 C4.18,9.35088608 2.98,8.1964557 2.83,6.74379747 C3.26,6.74379747 5.37,6.74379747 9.19,6.74379747 C10.08,6.43594937 10.54,6.03189873 10.58,5.57974684 C10.58,5.56050633 10.58,5.4643038 10.58,5.45468354 Z M8.39,4.94481013 C7.85,4.94481013 3.5,4.94481013 2.96,4.94481013 C3.25,3.69417722 4.35,2.78025316 5.66,2.69367089 C5.67,2.69367089 5.69,2.69367089 5.69,2.69367089 C7,2.78025316 8.1,3.69417722 8.39,4.94481013 Z" id="ipKJyPHtZ"></path>
                </g>
                <g id="ipKJyPHtZ-link" fill-opacity="0" stroke="#000000" stroke-opacity="0">
                    <path d="M10.58,5.45468354 C10.57,5.20455696 10.54,4.96405063 10.49,4.7235443 C10.05,2.4435443 8.05,0.750379747 5.67,0.663797468 C2.96,0.663797468 0.7,3.08810127 0.7,6.07037975 C0.7,9.05265823 2.93,11.4865823 5.67,11.4865823 C7.13,11.5443038 8.53,10.9670886 9.51,9.91848101 C9.91,9.49518987 9.88,8.83139241 9.44,8.43696203 C9.44,8.43696203 9.44,8.43696203 9.44,8.43696203 C9.43,8.42734177 9.35,8.36962025 9.34,8.36 C8.9,8.09063291 8.33,8.14835443 7.96,8.5043038 C7.35,9.10075949 6.53,9.4278481 5.67,9.45670886 C4.18,9.35088608 2.98,8.1964557 2.83,6.74379747 C3.26,6.74379747 5.37,6.74379747 9.19,6.74379747 C10.08,6.43594937 10.54,6.03189873 10.58,5.57974684 C10.58,5.56050633 10.58,5.4643038 10.58,5.45468354 Z M8.39,4.94481013 C7.85,4.94481013 3.5,4.94481013 2.96,4.94481013 C3.25,3.69417722 4.35,2.78025316 5.66,2.69367089 C5.67,2.69367089 5.69,2.69367089 5.69,2.69367089 C7,2.78025316 8.1,3.69417722 8.39,4.94481013 Z" id="ipKJyPHtZ"></path>
                </g>
            </g>
            <g id="Group" transform="translate(237.000000, 30.784810)" fill="#000000" fill-opacity="0" fill-rule="nonzero">
                <g id="aa8OAvCo-link">
                    <path d="M10.58,5.45468354 C10.57,5.20455696 10.54,4.96405063 10.49,4.7235443 C10.05,2.4435443 8.05,0.750379747 5.67,0.663797468 C2.96,0.663797468 0.7,3.08810127 0.7,6.07037975 C0.7,9.05265823 2.93,11.4865823 5.67,11.4865823 C7.13,11.5443038 8.53,10.9670886 9.51,9.91848101 C9.91,9.49518987 9.88,8.83139241 9.44,8.43696203 C9.44,8.43696203 9.44,8.43696203 9.44,8.43696203 C9.43,8.42734177 9.35,8.36962025 9.34,8.36 C8.9,8.09063291 8.33,8.14835443 7.96,8.5043038 C7.35,9.10075949 6.53,9.4278481 5.67,9.45670886 C4.18,9.35088608 2.98,8.1964557 2.83,6.74379747 C3.26,6.74379747 5.37,6.74379747 9.19,6.74379747 C10.08,6.43594937 10.54,6.03189873 10.58,5.57974684 C10.58,5.56050633 10.58,5.4643038 10.58,5.45468354 Z M8.39,4.94481013 C7.85,4.94481013 3.5,4.94481013 2.96,4.94481013 C3.25,3.69417722 4.35,2.78025316 5.66,2.69367089 C5.67,2.69367089 5.69,2.69367089 5.69,2.69367089 C7,2.78025316 8.1,3.69417722 8.39,4.94481013 Z" id="aa8OAvCo"></path>
                </g>
                <g id="aa8OAvCo-link" stroke="#000000" stroke-opacity="0">
                    <path d="M10.58,5.45468354 C10.57,5.20455696 10.54,4.96405063 10.49,4.7235443 C10.05,2.4435443 8.05,0.750379747 5.67,0.663797468 C2.96,0.663797468 0.7,3.08810127 0.7,6.07037975 C0.7,9.05265823 2.93,11.4865823 5.67,11.4865823 C7.13,11.5443038 8.53,10.9670886 9.51,9.91848101 C9.91,9.49518987 9.88,8.83139241 9.44,8.43696203 C9.44,8.43696203 9.44,8.43696203 9.44,8.43696203 C9.43,8.42734177 9.35,8.36962025 9.34,8.36 C8.9,8.09063291 8.33,8.14835443 7.96,8.5043038 C7.35,9.10075949 6.53,9.4278481 5.67,9.45670886 C4.18,9.35088608 2.98,8.1964557 2.83,6.74379747 C3.26,6.74379747 5.37,6.74379747 9.19,6.74379747 C10.08,6.43594937 10.54,6.03189873 10.58,5.57974684 C10.58,5.56050633 10.58,5.4643038 10.58,5.45468354 Z M8.39,4.94481013 C7.85,4.94481013 3.5,4.94481013 2.96,4.94481013 C3.25,3.69417722 4.35,2.78025316 5.66,2.69367089 C5.67,2.69367089 5.69,2.69367089 5.69,2.69367089 C7,2.78025316 8.1,3.69417722 8.39,4.94481013 Z" id="aa8OAvCo"></path>
                </g>
            </g>
            <g id="Group" transform="translate(231.000000, 30.784810)" fill="#000000" fill-rule="nonzero">
                <g id="b1sbOdOUGn-link">
                    <path d="M2.18,2.03949367 C2.18,2.02987342 2.18,1.91443038 2.18,1.90481013 C2.13,1.33721519 1.62,0.933164557 1.04,0.981265823 C0.54,1.02936709 0.14,1.41417722 0.09,1.90481013 C0.09,2.7321519 0.09,9.38936709 0.09,10.2263291 C0.09,10.7746835 0.51,11.2268354 1.07,11.2749367 C1.64,11.323038 2.13,10.8997468 2.17,10.3417722 C2.18,10.3032911 2.18,10.2648101 2.17,10.2263291 C2.17,9.79341772 2.17,6.39746835 2.17,5.96455696 C2.07,4.26177215 3.41,2.80911392 5.15,2.71291139 C5.16,2.71291139 5.17,2.71291139 5.17,2.71291139 C5.33,2.70329114 5.49,2.70329114 5.64,2.71291139 C5.66,2.71291139 5.83,2.71291139 5.85,2.71291139 C6.39,2.67443038 6.8,2.23189873 6.81,1.72202532 C6.81,1.22177215 6.44,0.788860759 5.93,0.711898734 C4.53,0.471392405 3.1,0.981265823 2.18,2.03949367 Z" id="b1sbOdOUGn"></path>
                </g>
                <g id="b1sbOdOUGn-link" fill-opacity="0" stroke="#000000" stroke-opacity="0">
                    <path d="M2.18,2.03949367 C2.18,2.02987342 2.18,1.91443038 2.18,1.90481013 C2.13,1.33721519 1.62,0.933164557 1.04,0.981265823 C0.54,1.02936709 0.14,1.41417722 0.09,1.90481013 C0.09,2.7321519 0.09,9.38936709 0.09,10.2263291 C0.09,10.7746835 0.51,11.2268354 1.07,11.2749367 C1.64,11.323038 2.13,10.8997468 2.17,10.3417722 C2.18,10.3032911 2.18,10.2648101 2.17,10.2263291 C2.17,9.79341772 2.17,6.39746835 2.17,5.96455696 C2.07,4.26177215 3.41,2.80911392 5.15,2.71291139 C5.16,2.71291139 5.17,2.71291139 5.17,2.71291139 C5.33,2.70329114 5.49,2.70329114 5.64,2.71291139 C5.66,2.71291139 5.83,2.71291139 5.85,2.71291139 C6.39,2.67443038 6.8,2.23189873 6.81,1.72202532 C6.81,1.22177215 6.44,0.788860759 5.93,0.711898734 C4.53,0.471392405 3.1,0.981265823 2.18,2.03949367 Z" id="b1sbOdOUGn"></path>
                </g>
            </g>
            <g id="Group" transform="translate(231.000000, 30.784810)" fill="#000000" fill-opacity="0" fill-rule="nonzero">
                <g id="a3wARaVwJS-link">
                    <path d="M2.18,2.03949367 C2.18,2.02987342 2.18,1.91443038 2.18,1.90481013 C2.13,1.33721519 1.62,0.933164557 1.04,0.981265823 C0.54,1.02936709 0.14,1.41417722 0.09,1.90481013 C0.09,2.7321519 0.09,9.38936709 0.09,10.2263291 C0.09,10.7746835 0.51,11.2268354 1.07,11.2749367 C1.64,11.323038 2.13,10.8997468 2.17,10.3417722 C2.18,10.3032911 2.18,10.2648101 2.17,10.2263291 C2.17,9.79341772 2.17,6.39746835 2.17,5.96455696 C2.07,4.26177215 3.41,2.80911392 5.15,2.71291139 C5.16,2.71291139 5.17,2.71291139 5.17,2.71291139 C5.33,2.70329114 5.49,2.70329114 5.64,2.71291139 C5.66,2.71291139 5.83,2.71291139 5.85,2.71291139 C6.39,2.67443038 6.8,2.23189873 6.81,1.72202532 C6.81,1.22177215 6.44,0.788860759 5.93,0.711898734 C4.53,0.471392405 3.1,0.981265823 2.18,2.03949367 Z" id="a3wARaVwJS"></path>
                </g>
                <g id="a3wARaVwJS-link" stroke="#000000" stroke-opacity="0">
                    <path d="M2.18,2.03949367 C2.18,2.02987342 2.18,1.91443038 2.18,1.90481013 C2.13,1.33721519 1.62,0.933164557 1.04,0.981265823 C0.54,1.02936709 0.14,1.41417722 0.09,1.90481013 C0.09,2.7321519 0.09,9.38936709 0.09,10.2263291 C0.09,10.7746835 0.51,11.2268354 1.07,11.2749367 C1.64,11.323038 2.13,10.8997468 2.17,10.3417722 C2.18,10.3032911 2.18,10.2648101 2.17,10.2263291 C2.17,9.79341772 2.17,6.39746835 2.17,5.96455696 C2.07,4.26177215 3.41,2.80911392 5.15,2.71291139 C5.16,2.71291139 5.17,2.71291139 5.17,2.71291139 C5.33,2.70329114 5.49,2.70329114 5.64,2.71291139 C5.66,2.71291139 5.83,2.71291139 5.85,2.71291139 C6.39,2.67443038 6.8,2.23189873 6.81,1.72202532 C6.81,1.22177215 6.44,0.788860759 5.93,0.711898734 C4.53,0.471392405 3.1,0.981265823 2.18,2.03949367 Z" id="a3wARaVwJS"></path>
                </g>
            </g>
            <g id="Group" transform="translate(291.000000, 29.822785)" fill="#000000" fill-opacity="0" fill-rule="nonzero">
                <g id="biRUQbwOj-link">
                    <polyline id="biRUQbwOj" points="0.42 0.529113924 7.11 5.64708861 0.42 11.8906329"></polyline>
                </g>
                <g id="biRUQbwOj-link" stroke="#EC5428" stroke-width="4">
                    <polyline id="biRUQbwOj" points="0.42 0.529113924 7.11 5.64708861 0.42 11.8906329"></polyline>
                </g>
            </g>
            <g id="Group" transform="translate(14.000000, 18.278481)" fill-rule="nonzero">
                <g id="aoJYiHneN-link" fill="#FFFFFF">
                    <path d="M5.81,6.27240506 C3.04,9.16810127 1.42,12.6602532 0.99,16.6718987 C0.93,17.2394937 0.93,19.4521519 0.99,20.0197468 C1.44,24.243038 3.24,27.9468354 6.28,30.8810127 C9.35,33.8536709 13.31,35.604557 17.69,35.9508861 C18.38,35.9989873 20.35,35.9701266 20.98,35.8931646 C23.16,35.6334177 25.04,35.1139241 26.93,34.2192405 C29.81,32.8627848 32.29,30.7559494 34.07,28.1488608 C35.7,25.7726582 36.66,23.2136709 37.02,20.2602532 C37.1,19.644557 37.13,17.7301266 37.07,17.0470886 C36.73,12.7949367 34.93,8.91797468 31.88,5.92607595 C28.91,3.01113924 25.2,1.27949367 20.92,0.788860759 C20.5,0.740759494 18.16,0.692658228 17.85,0.731139241 C17.79,0.740759494 17.54,0.76 17.3,0.779240506 C13.02,1.14481013 8.81,3.15544304 5.81,6.27240506 Z M21.85,6.76303797 C22.82,7.67696203 23.63,8.41772152 23.63,8.41772152 C23.64,8.40810127 23.66,8.30227848 23.68,8.16759494 C23.78,7.59037975 24.08,7.10936709 24.56,6.80151899 C25.03,6.48405063 25.31,6.42632911 26.46,6.42632911 C27.64,6.42632911 27.93,6.48405063 28.42,6.84962025 C28.77,7.09012658 29.03,7.4556962 29.18,7.91746835 C29.24,8.08101266 29.25,8.31189873 29.27,10.9959494 C29.27,11.1883544 29.27,12.16 29.28,13.9012658 C30.01,14.6035443 30.41,15.0075949 30.49,15.084557 C31.7,16.2486076 31.7,16.2582278 31.87,16.2774684 C32.12,16.3063291 32.33,16.4121519 32.54,16.604557 C32.8,16.8450633 32.89,17.0470886 32.89,17.4126582 C32.89,17.6435443 32.87,17.7301266 32.81,17.8744304 C32.69,18.124557 32.52,18.3073418 32.28,18.4324051 C32.07,18.5382278 32.04,18.5478481 31.73,18.5478481 C31.45,18.5478481 31.37,18.5286076 31.23,18.4612658 C30.87,18.2881013 30.6,17.9321519 30.56,17.556962 C30.56,17.5377215 30.55,17.48 30.54,17.364557 C29.77,16.604557 29.34,16.1812658 29.25,16.0946835 C28.11,14.9787342 27.95,14.8055696 27.85,14.6035443 C27.63,14.1706329 27.64,14.2379747 27.64,11.1594937 C27.64,8.5235443 27.63,8.36962025 27.57,8.26379747 C27.45,8.03291139 27.37,8.01367089 26.46,8.01367089 C25.58,8.01367089 25.48,8.03291139 25.36,8.20607595 C25.3,8.30227848 25.29,8.44658228 25.28,10.2359494 C25.28,10.3706329 25.27,11.0151899 25.26,12.1792405 C23.42,10.4379747 22.39,9.47594937 22.19,9.2835443 C20.5,7.68658228 19.08,6.35898734 19.02,6.32050633 C18.89,6.2435443 18.72,6.2435443 18.59,6.31088608 C18.54,6.33012658 15.85,8.92759494 12.62,12.083038 C7.67,16.9027848 6.74,17.8263291 6.72,17.9321519 C6.67,18.163038 6.74,18.2688608 7.4,18.9134177 C8.05,19.5387342 8.13,19.5868354 8.37,19.5291139 C8.43,19.5194937 8.69,19.2982278 9.03,18.9711392 C14.76,13.4587342 17.71,10.6592405 17.9,10.5437975 C18.25,10.3321519 18.53,10.2648101 18.98,10.2648101 C19.39,10.2648101 19.56,10.3032911 19.95,10.4956962 C20.14,10.5822785 20.71,11.1306329 24.75,15.0653165 C27.75,17.9802532 29.39,19.6060759 29.48,19.7311392 C29.68,20.0197468 29.79,20.404557 29.8,20.7797468 C29.8,21.1453165 29.75,21.3665823 29.59,21.7129114 C29.48,21.9437975 29.39,22.0303797 28.7,22.7134177 C28.23,23.1751899 27.85,23.521519 27.74,23.5792405 C27.04,24.0025316 26.07,23.9640506 25.43,23.483038 C25.33,23.4060759 23.85,22.0207595 22.13,20.3949367 C20.16,18.5189873 18.97,17.4222785 18.9,17.3934177 C18.64,17.2875949 18.76,17.1817722 15.51,20.3660759 C13.85,21.9822785 12.48,23.3387342 12.45,23.3772152 C12.39,23.4734177 12.4,23.6850633 12.46,23.8005063 C12.48,23.8582278 12.78,24.1468354 13.11,24.4643038 C13.55,24.8972152 13.74,25.0511392 13.82,25.0703797 C14.07,25.118481 14.11,25.0896203 15.67,23.5888608 C17.61,21.7225316 17.67,21.6648101 17.97,21.5205063 C18.65,21.203038 19.42,21.2511392 20.01,21.6455696 C20.16,21.7417722 20.89,22.4151899 21.97,23.4541772 C23.83,25.2339241 23.88,25.3012658 24.04,25.7822785 C24.14,26.0997468 24.14,26.6 24.05,26.8982278 C23.9,27.3696203 23.89,27.3888608 22.08,29.1686076 C21.97,29.2744304 21.41,29.8324051 20.39,30.8232911 C20.37,30.9483544 20.35,31.0253165 20.35,31.0349367 C20.3,31.3043038 20.22,31.4774684 20.03,31.6698734 C19.45,32.2855696 18.38,32.0643038 18.08,31.2658228 C17.82,30.5924051 18.31,29.8131646 19.04,29.7362025 C19.06,29.7362025 19.12,29.7265823 19.22,29.7073418 C20.18,28.7837975 20.71,28.2739241 20.81,28.1681013 C21.69,27.321519 22.43,26.5903797 22.45,26.5326582 C22.52,26.4268354 22.52,26.3017722 22.45,26.1863291 C22.41,26.0901266 19.26,23.0597468 19.1,22.9443038 C18.99,22.876962 18.8,22.876962 18.67,22.9539241 C18.61,22.9827848 17.8,23.7524051 16.86,24.6663291 C15.21,26.2536709 15.15,26.3017722 14.87,26.4364557 C14.35,26.6865823 13.82,26.7250633 13.29,26.561519 C12.86,26.4172152 12.74,26.3402532 11.92,25.5321519 C11.21,24.8394937 11.12,24.7432911 11.01,24.5124051 C10.84,24.1853165 10.78,23.9159494 10.78,23.5792405 C10.78,23.2521519 10.84,22.9827848 11.01,22.6556962 C11.13,22.4151899 11.27,22.2708861 14.24,19.3559494 C15.95,17.6627848 17.42,16.2389873 17.51,16.1812658 C17.89,15.9118987 18.27,15.7964557 18.77,15.7964557 C19.17,15.7964557 19.54,15.8926582 19.86,16.0946835 C19.99,16.1812658 21.17,17.2779747 23.12,19.115443 C24.8,20.6931646 26.24,22.0592405 26.33,22.1362025 C26.47,22.2708861 26.51,22.2805063 26.67,22.2805063 C26.68,22.2805063 26.74,22.2805063 26.85,22.2805063 C27.23,21.9149367 27.44,21.7129114 27.49,21.6744304 C28.15,21.0298734 28.22,20.9336709 28.17,20.7124051 C28.15,20.6258228 27.29,19.7792405 23.71,16.2678481 C21.26,13.8820253 19.22,11.9098734 19.17,11.8810127 C19.05,11.8232911 18.87,11.8232911 18.77,11.8810127 C18.72,11.9002532 16.63,13.9012658 14.11,16.3159494 C10.77,19.5291139 9.48,20.7412658 9.32,20.8374684 C8.69,21.2126582 7.87,21.2222785 7.2,20.8567089 C6.97,20.7220253 5.63,19.4521519 5.43,19.1635443 C5.36,19.0577215 5.25,18.8653165 5.2,18.7402532 C5.12,18.5286076 5.11,18.4708861 5.11,18.0475949 C5.11,17.518481 5.14,17.364557 5.37,16.9797468 C5.46,16.835443 6.98,15.3250633 11.32,11.0921519 C14.52,7.96556962 17.26,5.32 17.39,5.18531646 C17.68,4.95443038 18,4.79088608 18.32,4.7235443 C18.62,4.65620253 19.16,4.67544304 19.45,4.77164557 C19.57,4.81012658 19.77,4.89670886 19.88,4.96405063 C20.01,5.04101266 20.7,5.66632911 21.85,6.76303797 Z" id="aoJYiHneN"></path>
                </g>
                <g id="aoJYiHneN-link" fill="#000000" fill-opacity="0" stroke="#000000" stroke-opacity="0">
                    <path d="M5.81,6.27240506 C3.04,9.16810127 1.42,12.6602532 0.99,16.6718987 C0.93,17.2394937 0.93,19.4521519 0.99,20.0197468 C1.44,24.243038 3.24,27.9468354 6.28,30.8810127 C9.35,33.8536709 13.31,35.604557 17.69,35.9508861 C18.38,35.9989873 20.35,35.9701266 20.98,35.8931646 C23.16,35.6334177 25.04,35.1139241 26.93,34.2192405 C29.81,32.8627848 32.29,30.7559494 34.07,28.1488608 C35.7,25.7726582 36.66,23.2136709 37.02,20.2602532 C37.1,19.644557 37.13,17.7301266 37.07,17.0470886 C36.73,12.7949367 34.93,8.91797468 31.88,5.92607595 C28.91,3.01113924 25.2,1.27949367 20.92,0.788860759 C20.5,0.740759494 18.16,0.692658228 17.85,0.731139241 C17.79,0.740759494 17.54,0.76 17.3,0.779240506 C13.02,1.14481013 8.81,3.15544304 5.81,6.27240506 Z M21.85,6.76303797 C22.82,7.67696203 23.63,8.41772152 23.63,8.41772152 C23.64,8.40810127 23.66,8.30227848 23.68,8.16759494 C23.78,7.59037975 24.08,7.10936709 24.56,6.80151899 C25.03,6.48405063 25.31,6.42632911 26.46,6.42632911 C27.64,6.42632911 27.93,6.48405063 28.42,6.84962025 C28.77,7.09012658 29.03,7.4556962 29.18,7.91746835 C29.24,8.08101266 29.25,8.31189873 29.27,10.9959494 C29.27,11.1883544 29.27,12.16 29.28,13.9012658 C30.01,14.6035443 30.41,15.0075949 30.49,15.084557 C31.7,16.2486076 31.7,16.2582278 31.87,16.2774684 C32.12,16.3063291 32.33,16.4121519 32.54,16.604557 C32.8,16.8450633 32.89,17.0470886 32.89,17.4126582 C32.89,17.6435443 32.87,17.7301266 32.81,17.8744304 C32.69,18.124557 32.52,18.3073418 32.28,18.4324051 C32.07,18.5382278 32.04,18.5478481 31.73,18.5478481 C31.45,18.5478481 31.37,18.5286076 31.23,18.4612658 C30.87,18.2881013 30.6,17.9321519 30.56,17.556962 C30.56,17.5377215 30.55,17.48 30.54,17.364557 C29.77,16.604557 29.34,16.1812658 29.25,16.0946835 C28.11,14.9787342 27.95,14.8055696 27.85,14.6035443 C27.63,14.1706329 27.64,14.2379747 27.64,11.1594937 C27.64,8.5235443 27.63,8.36962025 27.57,8.26379747 C27.45,8.03291139 27.37,8.01367089 26.46,8.01367089 C25.58,8.01367089 25.48,8.03291139 25.36,8.20607595 C25.3,8.30227848 25.29,8.44658228 25.28,10.2359494 C25.28,10.3706329 25.27,11.0151899 25.26,12.1792405 C23.42,10.4379747 22.39,9.47594937 22.19,9.2835443 C20.5,7.68658228 19.08,6.35898734 19.02,6.32050633 C18.89,6.2435443 18.72,6.2435443 18.59,6.31088608 C18.54,6.33012658 15.85,8.92759494 12.62,12.083038 C7.67,16.9027848 6.74,17.8263291 6.72,17.9321519 C6.67,18.163038 6.74,18.2688608 7.4,18.9134177 C8.05,19.5387342 8.13,19.5868354 8.37,19.5291139 C8.43,19.5194937 8.69,19.2982278 9.03,18.9711392 C14.76,13.4587342 17.71,10.6592405 17.9,10.5437975 C18.25,10.3321519 18.53,10.2648101 18.98,10.2648101 C19.39,10.2648101 19.56,10.3032911 19.95,10.4956962 C20.14,10.5822785 20.71,11.1306329 24.75,15.0653165 C27.75,17.9802532 29.39,19.6060759 29.48,19.7311392 C29.68,20.0197468 29.79,20.404557 29.8,20.7797468 C29.8,21.1453165 29.75,21.3665823 29.59,21.7129114 C29.48,21.9437975 29.39,22.0303797 28.7,22.7134177 C28.23,23.1751899 27.85,23.521519 27.74,23.5792405 C27.04,24.0025316 26.07,23.9640506 25.43,23.483038 C25.33,23.4060759 23.85,22.0207595 22.13,20.3949367 C20.16,18.5189873 18.97,17.4222785 18.9,17.3934177 C18.64,17.2875949 18.76,17.1817722 15.51,20.3660759 C13.85,21.9822785 12.48,23.3387342 12.45,23.3772152 C12.39,23.4734177 12.4,23.6850633 12.46,23.8005063 C12.48,23.8582278 12.78,24.1468354 13.11,24.4643038 C13.55,24.8972152 13.74,25.0511392 13.82,25.0703797 C14.07,25.118481 14.11,25.0896203 15.67,23.5888608 C17.61,21.7225316 17.67,21.6648101 17.97,21.5205063 C18.65,21.203038 19.42,21.2511392 20.01,21.6455696 C20.16,21.7417722 20.89,22.4151899 21.97,23.4541772 C23.83,25.2339241 23.88,25.3012658 24.04,25.7822785 C24.14,26.0997468 24.14,26.6 24.05,26.8982278 C23.9,27.3696203 23.89,27.3888608 22.08,29.1686076 C21.97,29.2744304 21.41,29.8324051 20.39,30.8232911 C20.37,30.9483544 20.35,31.0253165 20.35,31.0349367 C20.3,31.3043038 20.22,31.4774684 20.03,31.6698734 C19.45,32.2855696 18.38,32.0643038 18.08,31.2658228 C17.82,30.5924051 18.31,29.8131646 19.04,29.7362025 C19.06,29.7362025 19.12,29.7265823 19.22,29.7073418 C20.18,28.7837975 20.71,28.2739241 20.81,28.1681013 C21.69,27.321519 22.43,26.5903797 22.45,26.5326582 C22.52,26.4268354 22.52,26.3017722 22.45,26.1863291 C22.41,26.0901266 19.26,23.0597468 19.1,22.9443038 C18.99,22.876962 18.8,22.876962 18.67,22.9539241 C18.61,22.9827848 17.8,23.7524051 16.86,24.6663291 C15.21,26.2536709 15.15,26.3017722 14.87,26.4364557 C14.35,26.6865823 13.82,26.7250633 13.29,26.561519 C12.86,26.4172152 12.74,26.3402532 11.92,25.5321519 C11.21,24.8394937 11.12,24.7432911 11.01,24.5124051 C10.84,24.1853165 10.78,23.9159494 10.78,23.5792405 C10.78,23.2521519 10.84,22.9827848 11.01,22.6556962 C11.13,22.4151899 11.27,22.2708861 14.24,19.3559494 C15.95,17.6627848 17.42,16.2389873 17.51,16.1812658 C17.89,15.9118987 18.27,15.7964557 18.77,15.7964557 C19.17,15.7964557 19.54,15.8926582 19.86,16.0946835 C19.99,16.1812658 21.17,17.2779747 23.12,19.115443 C24.8,20.6931646 26.24,22.0592405 26.33,22.1362025 C26.47,22.2708861 26.51,22.2805063 26.67,22.2805063 C26.68,22.2805063 26.74,22.2805063 26.85,22.2805063 C27.23,21.9149367 27.44,21.7129114 27.49,21.6744304 C28.15,21.0298734 28.22,20.9336709 28.17,20.7124051 C28.15,20.6258228 27.29,19.7792405 23.71,16.2678481 C21.26,13.8820253 19.22,11.9098734 19.17,11.8810127 C19.05,11.8232911 18.87,11.8232911 18.77,11.8810127 C18.72,11.9002532 16.63,13.9012658 14.11,16.3159494 C10.77,19.5291139 9.48,20.7412658 9.32,20.8374684 C8.69,21.2126582 7.87,21.2222785 7.2,20.8567089 C6.97,20.7220253 5.63,19.4521519 5.43,19.1635443 C5.36,19.0577215 5.25,18.8653165 5.2,18.7402532 C5.12,18.5286076 5.11,18.4708861 5.11,18.0475949 C5.11,17.518481 5.14,17.364557 5.37,16.9797468 C5.46,16.835443 6.98,15.3250633 11.32,11.0921519 C14.52,7.96556962 17.26,5.32 17.39,5.18531646 C17.68,4.95443038 18,4.79088608 18.32,4.7235443 C18.62,4.65620253 19.16,4.67544304 19.45,4.77164557 C19.57,4.81012658 19.77,4.89670886 19.88,4.96405063 C20.01,5.04101266 20.7,5.66632911 21.85,6.76303797 Z" id="aoJYiHneN"></path>
                </g>
            </g>
            <g id="Group" transform="translate(14.000000, 18.278481)" fill="#000000" fill-opacity="0" fill-rule="nonzero">
                <g id="f2COPbzjQm-link">
                    <path d="M5.81,6.27240506 C3.04,9.16810127 1.42,12.6602532 0.99,16.6718987 C0.93,17.2394937 0.93,19.4521519 0.99,20.0197468 C1.44,24.243038 3.24,27.9468354 6.28,30.8810127 C9.35,33.8536709 13.31,35.604557 17.69,35.9508861 C18.38,35.9989873 20.35,35.9701266 20.98,35.8931646 C23.16,35.6334177 25.04,35.1139241 26.93,34.2192405 C29.81,32.8627848 32.29,30.7559494 34.07,28.1488608 C35.7,25.7726582 36.66,23.2136709 37.02,20.2602532 C37.1,19.644557 37.13,17.7301266 37.07,17.0470886 C36.73,12.7949367 34.93,8.91797468 31.88,5.92607595 C28.91,3.01113924 25.2,1.27949367 20.92,0.788860759 C20.5,0.740759494 18.16,0.692658228 17.85,0.731139241 C17.79,0.740759494 17.54,0.76 17.3,0.779240506 C13.02,1.14481013 8.81,3.15544304 5.81,6.27240506 Z M21.85,6.76303797 C22.82,7.67696203 23.63,8.41772152 23.63,8.41772152 C23.64,8.40810127 23.66,8.30227848 23.68,8.16759494 C23.78,7.59037975 24.08,7.10936709 24.56,6.80151899 C25.03,6.48405063 25.31,6.42632911 26.46,6.42632911 C27.64,6.42632911 27.93,6.48405063 28.42,6.84962025 C28.77,7.09012658 29.03,7.4556962 29.18,7.91746835 C29.24,8.08101266 29.25,8.31189873 29.27,10.9959494 C29.27,11.1883544 29.27,12.16 29.28,13.9012658 C30.01,14.6035443 30.41,15.0075949 30.49,15.084557 C31.7,16.2486076 31.7,16.2582278 31.87,16.2774684 C32.12,16.3063291 32.33,16.4121519 32.54,16.604557 C32.8,16.8450633 32.89,17.0470886 32.89,17.4126582 C32.89,17.6435443 32.87,17.7301266 32.81,17.8744304 C32.69,18.124557 32.52,18.3073418 32.28,18.4324051 C32.07,18.5382278 32.04,18.5478481 31.73,18.5478481 C31.45,18.5478481 31.37,18.5286076 31.23,18.4612658 C30.87,18.2881013 30.6,17.9321519 30.56,17.556962 C30.56,17.5377215 30.55,17.48 30.54,17.364557 C29.77,16.604557 29.34,16.1812658 29.25,16.0946835 C28.11,14.9787342 27.95,14.8055696 27.85,14.6035443 C27.63,14.1706329 27.64,14.2379747 27.64,11.1594937 C27.64,8.5235443 27.63,8.36962025 27.57,8.26379747 C27.45,8.03291139 27.37,8.01367089 26.46,8.01367089 C25.58,8.01367089 25.48,8.03291139 25.36,8.20607595 C25.3,8.30227848 25.29,8.44658228 25.28,10.2359494 C25.28,10.3706329 25.27,11.0151899 25.26,12.1792405 C23.42,10.4379747 22.39,9.47594937 22.19,9.2835443 C20.5,7.68658228 19.08,6.35898734 19.02,6.32050633 C18.89,6.2435443 18.72,6.2435443 18.59,6.31088608 C18.54,6.33012658 15.85,8.92759494 12.62,12.083038 C7.67,16.9027848 6.74,17.8263291 6.72,17.9321519 C6.67,18.163038 6.74,18.2688608 7.4,18.9134177 C8.05,19.5387342 8.13,19.5868354 8.37,19.5291139 C8.43,19.5194937 8.69,19.2982278 9.03,18.9711392 C14.76,13.4587342 17.71,10.6592405 17.9,10.5437975 C18.25,10.3321519 18.53,10.2648101 18.98,10.2648101 C19.39,10.2648101 19.56,10.3032911 19.95,10.4956962 C20.14,10.5822785 20.71,11.1306329 24.75,15.0653165 C27.75,17.9802532 29.39,19.6060759 29.48,19.7311392 C29.68,20.0197468 29.79,20.404557 29.8,20.7797468 C29.8,21.1453165 29.75,21.3665823 29.59,21.7129114 C29.48,21.9437975 29.39,22.0303797 28.7,22.7134177 C28.23,23.1751899 27.85,23.521519 27.74,23.5792405 C27.04,24.0025316 26.07,23.9640506 25.43,23.483038 C25.33,23.4060759 23.85,22.0207595 22.13,20.3949367 C20.16,18.5189873 18.97,17.4222785 18.9,17.3934177 C18.64,17.2875949 18.76,17.1817722 15.51,20.3660759 C13.85,21.9822785 12.48,23.3387342 12.45,23.3772152 C12.39,23.4734177 12.4,23.6850633 12.46,23.8005063 C12.48,23.8582278 12.78,24.1468354 13.11,24.4643038 C13.55,24.8972152 13.74,25.0511392 13.82,25.0703797 C14.07,25.118481 14.11,25.0896203 15.67,23.5888608 C17.61,21.7225316 17.67,21.6648101 17.97,21.5205063 C18.65,21.203038 19.42,21.2511392 20.01,21.6455696 C20.16,21.7417722 20.89,22.4151899 21.97,23.4541772 C23.83,25.2339241 23.88,25.3012658 24.04,25.7822785 C24.14,26.0997468 24.14,26.6 24.05,26.8982278 C23.9,27.3696203 23.89,27.3888608 22.08,29.1686076 C21.97,29.2744304 21.41,29.8324051 20.39,30.8232911 C20.37,30.9483544 20.35,31.0253165 20.35,31.0349367 C20.3,31.3043038 20.22,31.4774684 20.03,31.6698734 C19.45,32.2855696 18.38,32.0643038 18.08,31.2658228 C17.82,30.5924051 18.31,29.8131646 19.04,29.7362025 C19.06,29.7362025 19.12,29.7265823 19.22,29.7073418 C20.18,28.7837975 20.71,28.2739241 20.81,28.1681013 C21.69,27.321519 22.43,26.5903797 22.45,26.5326582 C22.52,26.4268354 22.52,26.3017722 22.45,26.1863291 C22.41,26.0901266 19.26,23.0597468 19.1,22.9443038 C18.99,22.876962 18.8,22.876962 18.67,22.9539241 C18.61,22.9827848 17.8,23.7524051 16.86,24.6663291 C15.21,26.2536709 15.15,26.3017722 14.87,26.4364557 C14.35,26.6865823 13.82,26.7250633 13.29,26.561519 C12.86,26.4172152 12.74,26.3402532 11.92,25.5321519 C11.21,24.8394937 11.12,24.7432911 11.01,24.5124051 C10.84,24.1853165 10.78,23.9159494 10.78,23.5792405 C10.78,23.2521519 10.84,22.9827848 11.01,22.6556962 C11.13,22.4151899 11.27,22.2708861 14.24,19.3559494 C15.95,17.6627848 17.42,16.2389873 17.51,16.1812658 C17.89,15.9118987 18.27,15.7964557 18.77,15.7964557 C19.17,15.7964557 19.54,15.8926582 19.86,16.0946835 C19.99,16.1812658 21.17,17.2779747 23.12,19.115443 C24.8,20.6931646 26.24,22.0592405 26.33,22.1362025 C26.47,22.2708861 26.51,22.2805063 26.67,22.2805063 C26.68,22.2805063 26.74,22.2805063 26.85,22.2805063 C27.23,21.9149367 27.44,21.7129114 27.49,21.6744304 C28.15,21.0298734 28.22,20.9336709 28.17,20.7124051 C28.15,20.6258228 27.29,19.7792405 23.71,16.2678481 C21.26,13.8820253 19.22,11.9098734 19.17,11.8810127 C19.05,11.8232911 18.87,11.8232911 18.77,11.8810127 C18.72,11.9002532 16.63,13.9012658 14.11,16.3159494 C10.77,19.5291139 9.48,20.7412658 9.32,20.8374684 C8.69,21.2126582 7.87,21.2222785 7.2,20.8567089 C6.97,20.7220253 5.63,19.4521519 5.43,19.1635443 C5.36,19.0577215 5.25,18.8653165 5.2,18.7402532 C5.12,18.5286076 5.11,18.4708861 5.11,18.0475949 C5.11,17.518481 5.14,17.364557 5.37,16.9797468 C5.46,16.835443 6.98,15.3250633 11.32,11.0921519 C14.52,7.96556962 17.26,5.32 17.39,5.18531646 C17.68,4.95443038 18,4.79088608 18.32,4.7235443 C18.62,4.65620253 19.16,4.67544304 19.45,4.77164557 C19.57,4.81012658 19.77,4.89670886 19.88,4.96405063 C20.01,5.04101266 20.7,5.66632911 21.85,6.76303797 Z" id="f2COPbzjQm"></path>
                </g>
                <g id="f2COPbzjQm-link" stroke="#000000" stroke-opacity="0">
                    <path d="M5.81,6.27240506 C3.04,9.16810127 1.42,12.6602532 0.99,16.6718987 C0.93,17.2394937 0.93,19.4521519 0.99,20.0197468 C1.44,24.243038 3.24,27.9468354 6.28,30.8810127 C9.35,33.8536709 13.31,35.604557 17.69,35.9508861 C18.38,35.9989873 20.35,35.9701266 20.98,35.8931646 C23.16,35.6334177 25.04,35.1139241 26.93,34.2192405 C29.81,32.8627848 32.29,30.7559494 34.07,28.1488608 C35.7,25.7726582 36.66,23.2136709 37.02,20.2602532 C37.1,19.644557 37.13,17.7301266 37.07,17.0470886 C36.73,12.7949367 34.93,8.91797468 31.88,5.92607595 C28.91,3.01113924 25.2,1.27949367 20.92,0.788860759 C20.5,0.740759494 18.16,0.692658228 17.85,0.731139241 C17.79,0.740759494 17.54,0.76 17.3,0.779240506 C13.02,1.14481013 8.81,3.15544304 5.81,6.27240506 Z M21.85,6.76303797 C22.82,7.67696203 23.63,8.41772152 23.63,8.41772152 C23.64,8.40810127 23.66,8.30227848 23.68,8.16759494 C23.78,7.59037975 24.08,7.10936709 24.56,6.80151899 C25.03,6.48405063 25.31,6.42632911 26.46,6.42632911 C27.64,6.42632911 27.93,6.48405063 28.42,6.84962025 C28.77,7.09012658 29.03,7.4556962 29.18,7.91746835 C29.24,8.08101266 29.25,8.31189873 29.27,10.9959494 C29.27,11.1883544 29.27,12.16 29.28,13.9012658 C30.01,14.6035443 30.41,15.0075949 30.49,15.084557 C31.7,16.2486076 31.7,16.2582278 31.87,16.2774684 C32.12,16.3063291 32.33,16.4121519 32.54,16.604557 C32.8,16.8450633 32.89,17.0470886 32.89,17.4126582 C32.89,17.6435443 32.87,17.7301266 32.81,17.8744304 C32.69,18.124557 32.52,18.3073418 32.28,18.4324051 C32.07,18.5382278 32.04,18.5478481 31.73,18.5478481 C31.45,18.5478481 31.37,18.5286076 31.23,18.4612658 C30.87,18.2881013 30.6,17.9321519 30.56,17.556962 C30.56,17.5377215 30.55,17.48 30.54,17.364557 C29.77,16.604557 29.34,16.1812658 29.25,16.0946835 C28.11,14.9787342 27.95,14.8055696 27.85,14.6035443 C27.63,14.1706329 27.64,14.2379747 27.64,11.1594937 C27.64,8.5235443 27.63,8.36962025 27.57,8.26379747 C27.45,8.03291139 27.37,8.01367089 26.46,8.01367089 C25.58,8.01367089 25.48,8.03291139 25.36,8.20607595 C25.3,8.30227848 25.29,8.44658228 25.28,10.2359494 C25.28,10.3706329 25.27,11.0151899 25.26,12.1792405 C23.42,10.4379747 22.39,9.47594937 22.19,9.2835443 C20.5,7.68658228 19.08,6.35898734 19.02,6.32050633 C18.89,6.2435443 18.72,6.2435443 18.59,6.31088608 C18.54,6.33012658 15.85,8.92759494 12.62,12.083038 C7.67,16.9027848 6.74,17.8263291 6.72,17.9321519 C6.67,18.163038 6.74,18.2688608 7.4,18.9134177 C8.05,19.5387342 8.13,19.5868354 8.37,19.5291139 C8.43,19.5194937 8.69,19.2982278 9.03,18.9711392 C14.76,13.4587342 17.71,10.6592405 17.9,10.5437975 C18.25,10.3321519 18.53,10.2648101 18.98,10.2648101 C19.39,10.2648101 19.56,10.3032911 19.95,10.4956962 C20.14,10.5822785 20.71,11.1306329 24.75,15.0653165 C27.75,17.9802532 29.39,19.6060759 29.48,19.7311392 C29.68,20.0197468 29.79,20.404557 29.8,20.7797468 C29.8,21.1453165 29.75,21.3665823 29.59,21.7129114 C29.48,21.9437975 29.39,22.0303797 28.7,22.7134177 C28.23,23.1751899 27.85,23.521519 27.74,23.5792405 C27.04,24.0025316 26.07,23.9640506 25.43,23.483038 C25.33,23.4060759 23.85,22.0207595 22.13,20.3949367 C20.16,18.5189873 18.97,17.4222785 18.9,17.3934177 C18.64,17.2875949 18.76,17.1817722 15.51,20.3660759 C13.85,21.9822785 12.48,23.3387342 12.45,23.3772152 C12.39,23.4734177 12.4,23.6850633 12.46,23.8005063 C12.48,23.8582278 12.78,24.1468354 13.11,24.4643038 C13.55,24.8972152 13.74,25.0511392 13.82,25.0703797 C14.07,25.118481 14.11,25.0896203 15.67,23.5888608 C17.61,21.7225316 17.67,21.6648101 17.97,21.5205063 C18.65,21.203038 19.42,21.2511392 20.01,21.6455696 C20.16,21.7417722 20.89,22.4151899 21.97,23.4541772 C23.83,25.2339241 23.88,25.3012658 24.04,25.7822785 C24.14,26.0997468 24.14,26.6 24.05,26.8982278 C23.9,27.3696203 23.89,27.3888608 22.08,29.1686076 C21.97,29.2744304 21.41,29.8324051 20.39,30.8232911 C20.37,30.9483544 20.35,31.0253165 20.35,31.0349367 C20.3,31.3043038 20.22,31.4774684 20.03,31.6698734 C19.45,32.2855696 18.38,32.0643038 18.08,31.2658228 C17.82,30.5924051 18.31,29.8131646 19.04,29.7362025 C19.06,29.7362025 19.12,29.7265823 19.22,29.7073418 C20.18,28.7837975 20.71,28.2739241 20.81,28.1681013 C21.69,27.321519 22.43,26.5903797 22.45,26.5326582 C22.52,26.4268354 22.52,26.3017722 22.45,26.1863291 C22.41,26.0901266 19.26,23.0597468 19.1,22.9443038 C18.99,22.876962 18.8,22.876962 18.67,22.9539241 C18.61,22.9827848 17.8,23.7524051 16.86,24.6663291 C15.21,26.2536709 15.15,26.3017722 14.87,26.4364557 C14.35,26.6865823 13.82,26.7250633 13.29,26.561519 C12.86,26.4172152 12.74,26.3402532 11.92,25.5321519 C11.21,24.8394937 11.12,24.7432911 11.01,24.5124051 C10.84,24.1853165 10.78,23.9159494 10.78,23.5792405 C10.78,23.2521519 10.84,22.9827848 11.01,22.6556962 C11.13,22.4151899 11.27,22.2708861 14.24,19.3559494 C15.95,17.6627848 17.42,16.2389873 17.51,16.1812658 C17.89,15.9118987 18.27,15.7964557 18.77,15.7964557 C19.17,15.7964557 19.54,15.8926582 19.86,16.0946835 C19.99,16.1812658 21.17,17.2779747 23.12,19.115443 C24.8,20.6931646 26.24,22.0592405 26.33,22.1362025 C26.47,22.2708861 26.51,22.2805063 26.67,22.2805063 C26.68,22.2805063 26.74,22.2805063 26.85,22.2805063 C27.23,21.9149367 27.44,21.7129114 27.49,21.6744304 C28.15,21.0298734 28.22,20.9336709 28.17,20.7124051 C28.15,20.6258228 27.29,19.7792405 23.71,16.2678481 C21.26,13.8820253 19.22,11.9098734 19.17,11.8810127 C19.05,11.8232911 18.87,11.8232911 18.77,11.8810127 C18.72,11.9002532 16.63,13.9012658 14.11,16.3159494 C10.77,19.5291139 9.48,20.7412658 9.32,20.8374684 C8.69,21.2126582 7.87,21.2222785 7.2,20.8567089 C6.97,20.7220253 5.63,19.4521519 5.43,19.1635443 C5.36,19.0577215 5.25,18.8653165 5.2,18.7402532 C5.12,18.5286076 5.11,18.4708861 5.11,18.0475949 C5.11,17.518481 5.14,17.364557 5.37,16.9797468 C5.46,16.835443 6.98,15.3250633 11.32,11.0921519 C14.52,7.96556962 17.26,5.32 17.39,5.18531646 C17.68,4.95443038 18,4.79088608 18.32,4.7235443 C18.62,4.65620253 19.16,4.67544304 19.45,4.77164557 C19.57,4.81012658 19.77,4.89670886 19.88,4.96405063 C20.01,5.04101266 20.7,5.66632911 21.85,6.76303797 Z" id="f2COPbzjQm"></path>
                </g>
            </g>
            <text id="Homebridge" font-family="Helvetica" font-size="13" font-weight="normal" fill="#FFFFFF">
                <tspan x="63" y="32.8987342">Homebridge</tspan>
            </text>
            <text id="19k-members" opacity="0.501162574" font-family="Helvetica" font-size="11" font-weight="normal" fill="#FFFFFF">
                <tspan x="63" y="47.2721519">28k members</tspan>
            </text>
        </g>
    </g>
</svg>