<?xml version="1.0" encoding="utf-8"?>
<!-- Generator: Adobe Illustrator 21.1.0, SVG Export Plug-In . SVG Version: 6.00 Build 0)  -->
<svg version="1.1" id="Layer_1" xmlns="http://www.w3.org/2000/svg" xmlns:xlink="http://www.w3.org/1999/xlink" x="0px" y="0px"
	 viewBox="0 0 50 38" style="enable-background:new 0 0 50 38;" xml:space="preserve">
<style type="text/css">
	.st0{fill:#FFFFFF;}
</style>
<desc>Created with Sketch.</desc>
<g id="FirstBand" transform="translate(0.000000, 5.024155)">
	<path id="Fill-5" class="st0" d="M27.3,30.7c0,1.2-1,2.2-2.3,2.2c-1.3,0-2.3-1-2.3-2.2s1-2.2,2.3-2.2
		C26.3,28.4,27.3,29.4,27.3,30.7"/>
	<path id="Fill-1" class="st0" d="M15.9,22.6c-0.4,0-0.9-0.2-1.2-0.5c-0.7-0.7-0.7-1.7,0-2.4c0.4-0.4,0.8-0.7,1.1-1
		c0.7-0.6,1.8-0.5,2.4,0.2c0.6,0.7,0.5,1.8-0.2,2.4c-0.3,0.3-0.6,0.5-0.9,0.8C16.8,22.4,16.4,22.6,15.9,22.6"/>
	<path id="Fill-3" class="st0" d="M32.7,9.5c-0.2,0-0.4,0-0.6-0.1c-0.4-0.1-0.8-0.3-1.2-0.4c-0.9-0.3-1.4-1.2-1.2-2.1
		C30,6.1,31,5.5,31.9,5.8c0.5,0.1,0.9,0.3,1.4,0.4c0.9,0.3,1.4,1.3,1,2.1C34.1,9.1,33.4,9.5,32.7,9.5"/>
	<path id="Fill-8" class="st0" d="M1.7,7.6c-0.4,0-0.9-0.2-1.2-0.5c-0.7-0.7-0.7-1.7,0-2.4C2.2,3.1,4,1.6,5.9,0.3
		C6.7-0.2,7.7,0,8.3,0.7c0.5,0.8,0.3,1.8-0.4,2.3c-1.7,1.2-3.4,2.5-4.9,4C2.6,7.4,2.1,7.6,1.7,7.6"/>
	<path id="Fill-10" class="st0" d="M48.3,7.6c-0.4,0-0.9-0.2-1.2-0.5c-0.3-0.3-0.5-0.5-0.8-0.8c-0.7-0.6-0.7-1.7-0.1-2.4
		c0.6-0.7,1.7-0.7,2.4-0.1c0.3,0.3,0.6,0.6,0.9,0.8c0.7,0.7,0.7,1.7,0,2.4C49.2,7.4,48.7,7.6,48.3,7.6"/>
</g>
<g id="SecondBand" transform="translate(5.932203, 0.000000)">
	<path id="Fill-1_1_" class="st0" d="M26.5,27.6c-2.7-2.7-6.7-3.9-10.4-3c-0.9,0.2-1.8-0.4-2-1.3c-0.2-0.9,0.4-1.8,1.3-2
		c4.8-1.1,10,0.4,13.6,3.9c0.7,0.7,0.7,1.7,0,2.4c-0.3,0.3-0.8,0.5-1.2,0.5C27.3,28.1,26.9,27.9,26.5,27.6z"/>
	<path id="Fill-6" class="st0" d="M34.4,20.3c-1.2-1.2-2.5-2.2-3.9-3.1c-0.8-0.5-1-1.5-0.5-2.3c0.5-0.8,1.6-1,2.3-0.5
		c1.6,1,3.2,2.2,4.5,3.6c0.7,0.7,0.7,1.7,0,2.4c-0.3,0.3-0.8,0.5-1.2,0.5C35.2,20.8,34.7,20.6,34.4,20.3z"/>
	<path id="Fill-4" class="st0" d="M0.5,20.3c-0.7-0.7-0.7-1.7,0-2.4c5.3-5.2,12-7.9,19.1-7.6c0.9,0,1.7,0.8,1.6,1.8
		c0,0.9-0.9,1.7-1.8,1.6c-4.3-0.2-10.7,0.8-16.5,6.6c-0.3,0.3-0.8,0.5-1.2,0.5C1.3,20.8,0.8,20.6,0.5,20.3z"/>
	<path id="Fill-8_1_" class="st0" d="M36,8.8C26.9,2.7,15.7,1.7,6.1,6C5.3,6.4,4.3,6,3.9,5.2c-0.4-0.8,0-1.8,0.8-2.2
		c10.7-4.8,23.1-3.7,33.2,3c0.8,0.5,1,1.6,0.5,2.3C38,8.8,37.5,9,36.9,9C36.6,9,36.3,8.9,36,8.8z"/>
</g>
</svg>
